<?xml version="1.0" encoding="UTF-8"?>
<!-- Generated by Pixelmator Pro 3.5.7 -->
<svg width="512" height="512" viewBox="0 0 512 512" xmlns="http://www.w3.org/2000/svg">
    <path id="Elipse" fill="#ffffff" fill-rule="evenodd" stroke="none" d="M 480 256.5 C 480 133.064362 379.711792 33 256 33 C 132.288208 33 32 133.064362 32 256.5 C 32 379.935638 132.288208 480 256 480 C 379.711792 480 480 379.935638 480 256.5 Z"/>
    <path id="Trazado" fill="#000000" fill-rule="evenodd" stroke="none" d="M 480 257.350006 C 480 133.649994 379.700012 33.350006 256 33.350006 C 132.300003 33.350006 32 133.649994 32 257.350006 C 32 369.149994 113.900002 461.820007 221 478.640015 L 221 322.119995 L 164.110001 322.119995 L 164.110001 257.350006 L 221 257.350006 L 221 208 C 221 151.869995 254.449997 120.839996 305.609985 120.839996 C 330.119995 120.839996 355.76001 125.220001 355.76001 125.220001 L 355.76001 180.350006 L 327.5 180.350006 C 299.690002 180.350006 290.98999 197.609985 290.98999 215.350006 L 290.98999 257.350006 L 353.109985 257.350006 L 343.190002 322.119995 L 291 322.119995 L 291 478.660004 C 398.100006 461.850006 480 369.179993 480 257.350006 Z"/>
</svg>
