<?xml version="1.0" encoding="UTF-8"?>
<!-- Generated by Pixelmator Pro 3.5.7 -->
<svg width="512" height="512" viewBox="0 0 512 512" xmlns="http://www.w3.org/2000/svg">
    <path id="Elipse-copia" fill="#000000" fill-rule="evenodd" stroke="none" d="M 480 256.5 C 480 133.064362 379.711792 33 256 33 C 132.288208 33 32 133.064362 32 256.5 C 32 379.935638 132.288208 480 256 480 C 379.711792 480 480 379.935638 480 256.5 Z"/>
    <path id="Trazado" fill="#ffffff" stroke="none" d="M 255.499741 145.414917 C 291.679962 145.414917 295.965149 145.552612 310.253082 146.204498 C 323.464203 146.807465 330.638824 149.014862 335.414032 150.869965 C 341.738281 153.328033 346.252594 156.264801 350.993896 161.006104 C 355.735199 165.747406 358.671967 170.261719 361.129486 176.585968 C 362.985138 181.361176 365.192535 188.535797 365.795502 201.746368 C 366.447388 216.034821 366.585083 220.320038 366.585083 256.500275 C 366.585083 292.680481 366.447388 296.965698 365.795502 311.253601 C 365.192535 324.464752 362.985138 331.639374 361.129486 336.414551 C 358.671967 342.7388 355.735199 347.253143 350.993896 351.994446 C 346.252594 356.735779 341.738281 359.672516 335.414032 362.130035 C 330.638824 363.985657 323.464203 366.193115 310.253082 366.796021 C 295.967316 367.447937 291.682098 367.585632 255.499741 367.585632 C 219.317352 367.585632 215.03215 367.447937 200.746368 366.796021 C 187.535263 366.193115 180.360626 363.985657 175.585983 362.130035 C 169.261185 359.672516 164.746857 356.735779 160.005554 351.994446 C 155.264252 347.253143 152.327484 342.7388 149.869965 336.414551 C 148.014328 331.639374 145.806915 324.464752 145.203964 311.25415 C 144.552063 296.965698 144.414368 292.680481 144.414368 256.500275 C 144.414368 220.320038 144.552063 216.034821 145.203964 201.746918 C 145.806915 188.535797 148.014328 181.361176 149.869965 176.585968 C 152.327484 170.261719 155.264252 165.747406 160.005554 161.006104 C 164.746857 156.264801 169.261185 153.328033 175.585983 150.869965 C 180.360626 149.014862 187.535263 146.807465 200.745834 146.204498 C 215.034302 145.552612 219.319489 145.414917 255.499741 145.414917 M 255.499741 121 C 218.699875 121 214.086044 121.155975 199.633514 121.815399 C 185.210587 122.473755 175.361145 124.764008 166.741821 128.113861 C 157.831482 131.57663 150.274979 136.209839 142.742142 143.742676 C 135.20929 151.275513 130.576096 158.832031 127.113304 167.74234 C 123.763466 176.361694 121.473221 186.211121 120.814873 200.634064 C 120.155441 215.086029 120 219.700409 120 256.500275 C 120 293.30011 120.155441 297.91449 120.814873 312.366455 C 121.473221 326.789429 123.763466 336.638855 127.113304 345.258179 C 130.576096 354.167969 135.20929 361.725037 142.742142 369.257874 C 150.274979 376.79071 157.831482 381.423889 166.741821 384.886719 C 175.361145 388.236511 185.210587 390.526794 199.633514 391.18512 C 214.086044 391.844543 218.699875 392 255.499741 392 C 292.299591 392 296.913971 391.844543 311.365936 391.18512 C 325.788879 390.526794 335.638306 388.236511 344.25766 384.886719 C 353.167969 381.423889 360.724487 376.79071 368.257324 369.257874 C 375.790161 361.725037 380.42337 354.168518 383.886139 345.258179 C 387.235992 336.638855 389.526245 326.789429 390.184601 312.366455 C 390.844025 297.91449 391 293.30011 391 256.500275 C 391 219.700409 390.844025 215.086029 390.184601 200.634064 C 389.526245 186.211121 387.235992 176.361694 383.886139 167.74234 C 380.42337 158.832031 375.790161 151.275513 368.257324 143.742676 C 360.724487 136.209839 353.167969 131.57663 344.25766 128.113861 C 335.638306 124.764008 325.788879 122.473755 311.365936 121.815399 C 296.913971 121.155975 292.299591 121 255.499741 121 Z M 255.499741 186.918945 C 217.071213 186.918945 185.918427 218.071747 185.918427 256.500275 C 185.918427 294.928802 217.071213 326.081573 255.499741 326.081573 C 293.928253 326.081573 325.081055 294.928802 325.081055 256.500275 C 325.081055 218.071747 293.928253 186.918945 255.499741 186.918945 Z M 255.499741 301.667206 C 230.555023 301.667206 210.332794 281.444977 210.332794 256.500275 C 210.332794 231.555573 230.555023 211.333344 255.499741 211.333344 C 280.444427 211.333344 300.666687 231.555573 300.666687 256.500275 C 300.666687 281.444977 280.444427 301.667206 255.499741 301.667206 Z M 344.089844 184.169922 C 344.089844 193.150177 336.810333 200.430206 327.830078 200.430206 C 318.849823 200.430206 311.569794 193.150177 311.569794 184.169922 C 311.569794 175.189667 318.849823 167.910156 327.830078 167.910156 C 336.810333 167.910156 344.089844 175.189667 344.089844 184.169922 Z"/>
</svg>
