<?xml version="1.0" encoding="UTF-8"?>
<!-- Generated by Pixelmator Pro 3.5.7 -->
<svg width="512" height="512" viewBox="0 0 512 512" xmlns="http://www.w3.org/2000/svg">
    <path id="Elipse-copia" fill="#000000" fill-rule="evenodd" stroke="none" d="M 480 256.5 C 480 133.064362 379.711792 33 256 33 C 132.288208 33 32 133.064362 32 256.5 C 32 379.935638 132.288208 480 256 480 C 379.711792 480 480 379.935638 480 256.5 Z"/>
    <g id="Agrupar">
        <path id="Trazado" fill="#ffffff" fill-rule="evenodd" stroke="none" d="M 258.679413 359.366058 C 237.027939 359.366058 216.868561 352.871613 200.035782 341.738647 L 159.074875 354.856873 L 172.387527 315.272949 C 159.627808 297.700836 152.08812 276.109131 152.08812 252.780121 C 152.08812 194.005402 199.905563 146.190613 258.679413 146.190613 C 317.451477 146.190613 365.268921 194.005402 365.268921 252.780121 C 365.268921 311.552185 317.451477 359.366058 258.679413 359.366058 M 258.679413 126 C 188.657547 126 131.895721 182.76004 131.895721 252.781891 C 131.895721 276.733429 138.542679 299.133148 150.086792 318.243713 L 127.207275 386.261597 L 197.39946 363.786987 C 215.561981 373.832764 236.450027 379.557556 258.679413 379.557556 C 328.696808 379.557556 385.458618 322.799316 385.458618 252.781891 C 385.458618 182.76004 328.696808 126 258.679413 126"/>
        <path id="path1" fill="#ffffff" fill-rule="evenodd" stroke="none" d="M 228.943512 200.341003 C 226.890457 195.391235 225.316345 195.224457 222.144928 195.072845 C 221.05687 195.020233 219.876068 194.971161 218.586441 194.971161 C 214.499084 194.971161 210.261917 196.174286 207.708557 198.78653 C 204.601334 201.965942 196.830627 209.412018 196.830627 224.701904 C 196.830627 239.993561 207.967163 254.769745 209.518997 256.844177 C 211.075272 258.915955 231.23912 290.75415 262.61084 303.752869 C 287.098389 313.895874 294.366974 312.993286 299.955322 311.770599 C 308.083649 309.995789 318.290863 304.009705 320.880798 296.755371 C 323.470734 289.497498 323.470734 283.276855 322.693024 281.983673 C 321.916229 280.68692 319.844482 279.911896 316.736359 278.353851 C 313.628296 276.799347 298.347321 269.281921 295.498718 268.24649 C 292.650177 267.21106 290.01651 267.526764 287.824341 270.557281 C 284.80011 274.743652 281.891785 279.045044 279.48288 281.594849 C 277.593048 283.59613 274.551849 283.87439 271.93515 282.763153 C 268.49527 281.297852 258.812469 277.924866 246.941055 267.338593 C 237.703247 259.104126 231.464767 248.929901 229.651627 245.818237 C 227.839371 242.710144 229.492889 240.855072 230.889511 239.163239 C 232.483261 237.233307 233.953033 235.848236 235.506622 234.03421 C 237.061111 232.219299 237.928894 231.252533 238.965225 229.1763 C 240.000671 227.103668 239.303238 224.964996 238.526428 223.409607 C 237.747849 221.853333 231.526291 206.565247 228.943512 200.341003"/>
    </g>
</svg>
