<svg width="333" height="124" viewBox="0 0 333 124" fill="none" xmlns="http://www.w3.org/2000/svg">
<path d="M1.024 45.432H17.152C18.1333 45.5173 19.0293 45.4747 19.84 45.304C20.6507 45.0907 21.3547 44.792 21.952 44.408C22.5493 44.024 23.04 43.512 23.424 42.872C23.808 42.232 24.064 41.464 24.192 40.568C24.192 39.8 24.064 39.0747 23.808 38.392C23.552 37.7093 23.168 37.048 22.656 36.408C22.144 35.768 21.504 35.1707 20.736 34.616C19.968 34.0613 19.0933 33.528 18.112 33.016C17.9413 32.9307 17.7707 32.8453 17.6 32.76C17.4293 32.6747 17.2587 32.5893 17.088 32.504C16.9173 32.4187 16.7467 32.3333 16.576 32.248C16.4053 32.1627 16.2347 32.0773 16.064 31.992C16.0213 31.992 15.9787 31.992 15.936 31.992C15.8933 31.992 15.8507 31.992 15.808 31.992C15.808 31.9493 15.808 31.9067 15.808 31.864C14.016 31.0107 12.288 30.1147 10.624 29.176C9.00267 28.2373 7.44533 27.256 5.952 26.232C4.50133 25.208 3.392 24.0133 2.624 22.648C1.89867 21.2827 1.536 19.7467 1.536 18.04C1.536 17.9973 1.536 17.976 1.536 17.976C1.536 17.9333 1.536 17.8907 1.536 17.848C1.536 17.848 1.536 17.8267 1.536 17.784C1.536 17.7413 1.536 17.6987 1.536 17.656C1.536 17.6133 1.536 17.5707 1.536 17.528C1.536 17.4853 1.536 17.464 1.536 17.464C1.536 17.4213 1.536 17.3787 1.536 17.336C1.536 15.7147 1.74933 14.2853 2.176 13.048C2.64533 11.8107 3.34933 10.7867 4.288 9.976C5.22667 9.12267 6.208 8.41867 7.232 7.864C8.256 7.30933 9.344 6.904 10.496 6.648C10.6667 6.60533 10.8373 6.584 11.008 6.584C11.1787 6.54133 11.3493 6.49866 11.52 6.456C11.6053 6.456 11.6907 6.456 11.776 6.456C11.8613 6.41333 11.968 6.37067 12.096 6.328C12.1813 6.328 12.2667 6.328 12.352 6.328C12.4373 6.28533 12.5227 6.264 12.608 6.264L28.224 6.136V11.704H13.632C12.736 11.7893 11.9253 11.96 11.2 12.216C10.5173 12.472 9.92 12.856 9.408 13.368C8.896 13.88 8.512 14.4133 8.256 14.968C8 15.5227 7.82933 16.0987 7.744 16.696C7.744 16.7387 7.72267 16.7813 7.68 16.824C7.68 16.8667 7.68 16.9093 7.68 16.952C7.68 16.952 7.68 16.9733 7.68 17.016C7.68 17.0587 7.68 17.1013 7.68 17.144C7.68 17.1867 7.68 17.2293 7.68 17.272C7.68 17.272 7.68 17.2933 7.68 17.336C7.68 17.72 7.70133 18.0827 7.744 18.424C7.82933 18.7653 7.95733 19.1067 8.128 19.448C8.29867 19.7467 8.512 20.024 8.768 20.28C9.024 20.536 9.30133 20.7493 9.6 20.92C10.5813 21.6027 11.52 22.2213 12.416 22.776C13.3547 23.3307 14.2293 23.8213 15.04 24.248C15.8933 24.6747 16.704 25.1013 17.472 25.528C18.24 25.912 19.008 26.296 19.776 26.68C19.9893 26.808 20.1813 26.936 20.352 27.064C20.5653 27.1493 20.7573 27.2347 20.928 27.32C21.0133 27.3627 21.0987 27.4267 21.184 27.512C21.312 27.5547 21.44 27.5973 21.568 27.64C21.6533 27.7253 21.7387 27.7893 21.824 27.832C21.952 27.8747 22.0587 27.9173 22.144 27.96C22.272 28.0453 22.4 28.152 22.528 28.28C22.6987 28.3653 22.8693 28.4507 23.04 28.536C23.168 28.6213 23.3173 28.728 23.488 28.856C23.6587 28.9413 23.8293 29.0267 24 29.112C24.768 29.624 25.4933 30.2213 26.176 30.904C26.9013 31.5867 27.584 32.3547 28.224 33.208C28.864 34.0613 29.3547 35.0213 29.696 36.088C30.0373 37.1547 30.208 38.3067 30.208 39.544C30.208 39.8427 30.1867 40.1627 30.144 40.504C30.144 40.8453 30.1227 41.1867 30.08 41.528C30.0373 41.8693 29.9947 42.232 29.952 42.616C29.9093 42.9573 29.8453 43.2987 29.76 43.64C29.504 44.5787 29.12 45.4747 28.608 46.328C28.096 47.1813 27.4347 47.992 26.624 48.76C25.8133 49.528 24.7467 50.104 23.424 50.488C22.144 50.8293 20.5867 51 18.752 51C18.7093 51 18.6667 51 18.624 51C18.5813 51 18.5387 51 18.496 51C18.4533 51 18.4107 51 18.368 51C18.3253 51 18.2827 51 18.24 51C18.1973 51 18.1333 51 18.048 51C18.0053 51 17.9627 51 17.92 51C17.8773 51 17.8347 51 17.792 51C17.7493 51 17.7067 51 17.664 51H1.024V45.432Z" fill="black"/>
<path d="M43.5472 102V53.631H50.0332V73.227H70.7332V53.631H77.2192V102H70.7332V79.713H50.0332V102H43.5472Z" fill="black"/>
<path d="M82.496 102V72.24C82.496 70.0213 82.816 67.9733 83.456 66.096C84.1387 64.2187 85.1413 62.4907 86.464 60.912C87.8293 59.376 89.4293 58.224 91.264 57.456C93.1413 56.6453 95.2747 56.24 97.664 56.24C99.9253 56.24 101.995 56.624 103.872 57.392C105.749 58.16 107.413 59.312 108.864 60.848C110.357 62.384 111.467 64.176 112.192 66.224C112.917 68.272 113.28 70.5973 113.28 73.2C113.28 73.2427 113.28 73.2853 113.28 73.328C113.28 73.3707 113.28 73.4133 113.28 73.456C113.28 73.456 113.28 73.4773 113.28 73.52C113.28 73.5627 113.28 73.6053 113.28 73.648C113.28 73.6907 113.28 73.7333 113.28 73.776C113.28 73.8187 113.28 73.8827 113.28 73.968C113.28 74.0107 113.28 74.0747 113.28 74.16C113.28 74.2027 113.28 74.2453 113.28 74.288C113.28 74.3307 113.28 74.3733 113.28 74.416V102H107.2V81.328H90.56V75.312H107.2C107.2 75.312 107.2 75.2907 107.2 75.248C107.2 75.1627 107.2 75.0987 107.2 75.056C107.2 75.0133 107.2 74.9707 107.2 74.928C107.2 74.8853 107.221 74.8427 107.264 74.8C107.264 74.8 107.264 74.7787 107.264 74.736C107.264 74.6933 107.264 74.6507 107.264 74.608C107.264 74.5227 107.264 74.4587 107.264 74.416C107.264 74.3307 107.264 74.2667 107.264 74.224C107.264 74.1813 107.264 74.1387 107.264 74.096C107.264 74.0533 107.264 74.0107 107.264 73.968C107.264 73.968 107.264 73.9467 107.264 73.904C107.264 73.8613 107.264 73.8187 107.264 73.776C107.264 71.7707 107.051 70.0213 106.624 68.528C106.24 67.0347 105.643 65.7973 104.832 64.816C104.021 63.8347 103.04 63.088 101.888 62.576C100.779 62.064 99.52 61.808 98.112 61.808C96.7893 61.808 95.616 61.9787 94.592 62.32C93.568 62.6613 92.7147 63.152 92.032 63.792C91.3493 64.432 90.7733 65.1147 90.304 65.84C89.8773 66.5653 89.536 67.312 89.28 68.08C89.152 68.464 89.0453 68.848 88.96 69.232C88.8747 69.616 88.7893 70 88.704 70.384C88.6613 70.768 88.6187 71.1307 88.576 71.472C88.576 71.7707 88.576 72.0693 88.576 72.368V102H82.496Z" fill="black"/>
<path d="M117.574 56.734H124.372V86.368C124.372 88.524 124.592 90.35 125.032 91.846C125.472 93.298 126.132 94.464 127.012 95.344C127.892 96.18 128.838 96.818 129.85 97.258C130.906 97.698 132.028 97.918 133.216 97.918C134.624 97.918 135.856 97.698 136.912 97.258C137.968 96.818 138.848 96.136 139.552 95.212C140.256 94.332 140.806 93.408 141.202 92.44C141.598 91.428 141.84 90.372 141.928 89.272C141.928 89.228 141.928 89.184 141.928 89.14C141.928 89.096 141.95 89.03 141.994 88.942C141.994 88.898 141.994 88.854 141.994 88.81C141.994 88.766 141.994 88.722 141.994 88.678C141.994 88.59 141.994 88.502 141.994 88.414C141.994 88.282 141.994 88.172 141.994 88.084V56.734H148.792V87.424C148.792 90.24 148.396 92.66 147.604 94.684C146.812 96.708 145.646 98.38 144.106 99.7C142.566 101.02 140.872 101.988 139.024 102.604C137.22 103.22 135.284 103.528 133.216 103.528C131.148 103.528 129.19 103.198 127.342 102.538C125.538 101.834 123.844 100.778 122.26 99.37C120.676 97.962 119.488 96.312 118.696 94.42C117.948 92.528 117.574 90.416 117.574 88.084V56.734Z" fill="black"/>
<path d="M153.024 96.432H169.152C170.133 96.5173 171.029 96.4747 171.84 96.304C172.651 96.0907 173.355 95.792 173.952 95.408C174.549 95.024 175.04 94.512 175.424 93.872C175.808 93.232 176.064 92.464 176.192 91.568C176.192 90.8 176.064 90.0747 175.808 89.392C175.552 88.7093 175.168 88.048 174.656 87.408C174.144 86.768 173.504 86.1707 172.736 85.616C171.968 85.0613 171.093 84.528 170.112 84.016C169.941 83.9307 169.771 83.8453 169.6 83.76C169.429 83.6747 169.259 83.5893 169.088 83.504C168.917 83.4187 168.747 83.3333 168.576 83.248C168.405 83.1627 168.235 83.0773 168.064 82.992C168.021 82.992 167.979 82.992 167.936 82.992C167.893 82.992 167.851 82.992 167.808 82.992C167.808 82.9493 167.808 82.9067 167.808 82.864C166.016 82.0107 164.288 81.1147 162.624 80.176C161.003 79.2373 159.445 78.256 157.952 77.232C156.501 76.208 155.392 75.0133 154.624 73.648C153.899 72.2827 153.536 70.7467 153.536 69.04C153.536 68.9973 153.536 68.976 153.536 68.976C153.536 68.9333 153.536 68.8907 153.536 68.848C153.536 68.848 153.536 68.8267 153.536 68.784C153.536 68.7413 153.536 68.6987 153.536 68.656C153.536 68.6133 153.536 68.5707 153.536 68.528C153.536 68.4853 153.536 68.464 153.536 68.464C153.536 68.4213 153.536 68.3787 153.536 68.336C153.536 66.7147 153.749 65.2853 154.176 64.048C154.645 62.8107 155.349 61.7867 156.288 60.976C157.227 60.1227 158.208 59.4187 159.232 58.864C160.256 58.3093 161.344 57.904 162.496 57.648C162.667 57.6053 162.837 57.584 163.008 57.584C163.179 57.5413 163.349 57.4987 163.52 57.456C163.605 57.456 163.691 57.456 163.776 57.456C163.861 57.4133 163.968 57.3707 164.096 57.328C164.181 57.328 164.267 57.328 164.352 57.328C164.437 57.2853 164.523 57.264 164.608 57.264L180.224 57.136V62.704H165.632C164.736 62.7893 163.925 62.96 163.2 63.216C162.517 63.472 161.92 63.856 161.408 64.368C160.896 64.88 160.512 65.4133 160.256 65.968C160 66.5227 159.829 67.0987 159.744 67.696C159.744 67.7387 159.723 67.7813 159.68 67.824C159.68 67.8667 159.68 67.9093 159.68 67.952C159.68 67.952 159.68 67.9733 159.68 68.016C159.68 68.0587 159.68 68.1013 159.68 68.144C159.68 68.1867 159.68 68.2293 159.68 68.272C159.68 68.272 159.68 68.2933 159.68 68.336C159.68 68.72 159.701 69.0827 159.744 69.424C159.829 69.7653 159.957 70.1067 160.128 70.448C160.299 70.7467 160.512 71.024 160.768 71.28C161.024 71.536 161.301 71.7493 161.6 71.92C162.581 72.6027 163.52 73.2213 164.416 73.776C165.355 74.3307 166.229 74.8213 167.04 75.248C167.893 75.6747 168.704 76.1013 169.472 76.528C170.24 76.912 171.008 77.296 171.776 77.68C171.989 77.808 172.181 77.936 172.352 78.064C172.565 78.1493 172.757 78.2347 172.928 78.32C173.013 78.3627 173.099 78.4267 173.184 78.512C173.312 78.5547 173.44 78.5973 173.568 78.64C173.653 78.7253 173.739 78.7893 173.824 78.832C173.952 78.8747 174.059 78.9173 174.144 78.96C174.272 79.0453 174.4 79.152 174.528 79.28C174.699 79.3653 174.869 79.4507 175.04 79.536C175.168 79.6213 175.317 79.728 175.488 79.856C175.659 79.9413 175.829 80.0267 176 80.112C176.768 80.624 177.493 81.2213 178.176 81.904C178.901 82.5867 179.584 83.3547 180.224 84.208C180.864 85.0613 181.355 86.0213 181.696 87.088C182.037 88.1547 182.208 89.3067 182.208 90.544C182.208 90.8427 182.187 91.1627 182.144 91.504C182.144 91.8453 182.123 92.1867 182.08 92.528C182.037 92.8693 181.995 93.232 181.952 93.616C181.909 93.9573 181.845 94.2987 181.76 94.64C181.504 95.5787 181.12 96.4747 180.608 97.328C180.096 98.1813 179.435 98.992 178.624 99.76C177.813 100.528 176.747 101.104 175.424 101.488C174.144 101.829 172.587 102 170.752 102C170.709 102 170.667 102 170.624 102C170.581 102 170.539 102 170.496 102C170.453 102 170.411 102 170.368 102C170.325 102 170.283 102 170.24 102C170.197 102 170.133 102 170.048 102C170.005 102 169.963 102 169.92 102C169.877 102 169.835 102 169.792 102C169.749 102 169.707 102 169.664 102H153.024V96.432Z" fill="black"/>
<path d="M190.056 98.48C190.056 97.9253 190.141 97.4133 190.312 96.944C190.525 96.4747 190.824 96.0693 191.208 95.728C191.592 95.3867 191.997 95.1307 192.424 94.96C192.851 94.7893 193.299 94.6827 193.768 94.64C193.768 94.64 193.789 94.64 193.832 94.64C193.875 94.64 193.917 94.64 193.96 94.64C194.429 94.64 194.856 94.7253 195.24 94.896C195.667 95.024 196.072 95.2587 196.456 95.6C196.84 95.8987 197.117 96.304 197.288 96.816C197.501 97.328 197.608 97.9253 197.608 98.608C197.608 99.2907 197.501 99.888 197.288 100.4C197.117 100.912 196.84 101.339 196.456 101.68C196.072 101.936 195.667 102.149 195.24 102.32C194.813 102.491 194.365 102.576 193.896 102.576C193.427 102.576 192.957 102.491 192.488 102.32C192.061 102.192 191.656 101.979 191.272 101.68C190.845 101.339 190.525 100.912 190.312 100.4C190.141 99.888 190.056 99.2907 190.056 98.608V98.48Z" fill="#FF9057"/>
<path d="M32.488 11.704V6.136H61.224V11.704H50.152V51H43.56V11.704H32.488Z" fill="black"/>
<path d="M64.496 6.136H71.088V34.872C71.088 36.9627 71.3013 38.7333 71.728 40.184C72.1547 41.592 72.7947 42.7227 73.648 43.576C74.5013 44.3867 75.4187 45.0053 76.4 45.432C77.424 45.8587 78.512 46.072 79.664 46.072C81.0293 46.072 82.224 45.8587 83.248 45.432C84.272 45.0053 85.1253 44.344 85.808 43.448C86.4907 42.5947 87.024 41.6987 87.408 40.76C87.792 39.7787 88.0267 38.7547 88.112 37.688C88.112 37.6453 88.112 37.6027 88.112 37.56C88.112 37.5173 88.1333 37.4533 88.176 37.368C88.176 37.3253 88.176 37.2827 88.176 37.24C88.176 37.1973 88.176 37.1547 88.176 37.112C88.176 37.0267 88.176 36.9413 88.176 36.856C88.176 36.728 88.176 36.6213 88.176 36.536V6.136H94.768V35.896C94.768 38.6267 94.384 40.9733 93.616 42.936C92.848 44.8987 91.7173 46.52 90.224 47.8C88.7307 49.08 87.088 50.0187 85.296 50.616C83.5467 51.2133 81.6693 51.512 79.664 51.512C77.6587 51.512 75.76 51.192 73.968 50.552C72.2187 49.8693 70.576 48.8453 69.04 47.48C67.504 46.1147 66.352 44.5147 65.584 42.68C64.8587 40.8453 64.496 38.7973 64.496 36.536V6.136Z" fill="black"/>
<path d="M102.032 51V6.136H116.112C116.539 6.22133 116.965 6.28533 117.392 6.328C117.861 6.37067 118.309 6.43466 118.736 6.52C119.205 6.60533 119.675 6.712 120.144 6.84C120.613 6.968 121.083 7.096 121.552 7.224C123.344 7.864 125.051 8.78133 126.672 9.976C128.336 11.128 129.893 12.5787 131.344 14.328C132.837 16.0347 133.947 18.0187 134.672 20.28C135.44 22.4987 135.824 24.952 135.824 27.64C135.824 27.6827 135.824 27.7253 135.824 27.768C135.824 27.768 135.824 27.7893 135.824 27.832C135.824 27.8747 135.824 27.9173 135.824 27.96C135.824 28.0027 135.824 28.024 135.824 28.024C135.824 28.0667 135.824 28.1093 135.824 28.152C135.824 28.1947 135.824 28.2373 135.824 28.28C135.824 28.3227 135.824 28.3653 135.824 28.408C135.824 28.408 135.824 28.4293 135.824 28.472C135.824 29.0267 135.781 29.688 135.696 30.456C135.611 31.1813 135.461 32.0347 135.248 33.016C135.077 33.9547 134.8 34.9147 134.416 35.896C134.075 36.8773 133.648 37.88 133.136 38.904C132.411 40.3973 131.472 41.848 130.32 43.256C129.211 44.6213 127.909 45.9227 126.416 47.16C124.923 48.3973 123.152 49.336 121.104 49.976C119.056 50.616 116.731 50.9573 114.128 51H110.608V44.984H114.128C114.128 45.0693 114.128 45.112 114.128 45.112C114.171 45.112 114.213 45.112 114.256 45.112C114.299 45.112 114.32 45.112 114.32 45.112C114.363 45.112 114.405 45.112 114.448 45.112C114.491 45.112 114.533 45.112 114.576 45.112C114.619 45.112 114.64 45.112 114.64 45.112C114.683 45.112 114.725 45.112 114.768 45.112C116.56 45.112 118.181 44.856 119.632 44.344C121.083 43.7893 122.341 42.9787 123.408 41.912C124.475 40.8453 125.392 39.736 126.16 38.584C126.928 37.432 127.547 36.216 128.016 34.936C128.101 34.6373 128.187 34.36 128.272 34.104C128.357 33.8053 128.443 33.5067 128.528 33.208C128.613 32.952 128.677 32.696 128.72 32.44C128.805 32.1413 128.869 31.8427 128.912 31.544C128.997 30.9467 129.061 30.392 129.104 29.88C129.189 29.368 129.232 28.8987 129.232 28.472C129.232 28.4293 129.232 28.3867 129.232 28.344C129.232 28.3013 129.232 28.2587 129.232 28.216C129.232 28.1733 129.232 28.1307 129.232 28.088C129.232 28.0027 129.253 27.9387 129.296 27.896C129.296 27.8533 129.296 27.8107 129.296 27.768C129.296 27.7253 129.296 27.6827 129.296 27.64C129.296 27.5973 129.296 27.5547 129.296 27.512C129.296 27.4693 129.296 27.4267 129.296 27.384C129.296 27.384 129.296 27.3627 129.296 27.32C129.296 27.2773 129.296 27.2347 129.296 27.192C129.253 25.272 128.891 23.4373 128.208 21.688C127.568 19.896 126.587 18.2107 125.264 16.632C123.941 15.0107 122.277 13.816 120.272 13.048C118.267 12.2373 115.877 11.832 113.104 11.832L108.56 11.704V51H102.032Z" fill="black"/>
<path d="M142.005 56V6.229H148.75V56H142.005Z" fill="black"/>
<line x1="145.4" y1="48" x2="145.4" y2="70" stroke="black" stroke-width="6.8"/>
<path d="M154.536 27.832C154.536 24.504 155.091 21.496 156.2 18.808C157.309 16.12 158.973 13.7947 161.192 11.832C163.411 9.82666 165.736 8.29066 168.168 7.224C170.6 6.11466 173.139 5.47466 175.784 5.304C175.869 5.304 175.933 5.304 175.976 5.304C176.019 5.304 176.083 5.28266 176.168 5.24C176.211 5.24 176.253 5.24 176.296 5.24C176.381 5.24 176.445 5.24 176.488 5.24C176.573 5.24 176.637 5.24 176.68 5.24C176.723 5.24 176.787 5.24 176.872 5.24C176.915 5.24 176.957 5.24 177 5.24C177.085 5.24 177.149 5.24 177.192 5.24C177.747 5.24 178.301 5.26133 178.856 5.304C179.453 5.34666 180.051 5.41066 180.648 5.496C181.245 5.58133 181.843 5.688 182.44 5.816C183.08 5.944 183.72 6.09333 184.36 6.264C186.365 6.86133 188.285 7.75733 190.12 8.952C191.955 10.1467 193.725 11.6187 195.432 13.368C197.139 15.1173 198.44 17.2507 199.336 19.768C200.232 22.2853 200.744 25.1867 200.872 28.472C200.872 31.5013 200.36 34.36 199.336 37.048C198.312 39.736 196.797 42.2533 194.792 44.6C192.787 46.9467 190.397 48.696 187.624 49.848C184.893 50.9573 181.757 51.512 178.216 51.512C174.931 51.512 171.88 51.0213 169.064 50.04C166.291 49.0587 163.752 47.5867 161.448 45.624C159.144 43.6187 157.416 41.144 156.264 38.2C155.112 35.256 154.536 31.8427 154.536 27.96V27.832ZM161.064 27.832C161.064 28.0027 161.064 28.1307 161.064 28.216C161.064 28.3013 161.064 28.3867 161.064 28.472C161.064 28.5147 161.064 28.5573 161.064 28.6C161.064 28.6427 161.064 28.664 161.064 28.664C161.064 28.7067 161.064 28.7493 161.064 28.792C161.064 28.8347 161.064 28.8773 161.064 28.92C161.021 31.224 161.384 33.3787 162.152 35.384C162.92 37.3467 164.093 39.2027 165.672 40.952C167.208 42.6587 168.979 43.9387 170.984 44.792C172.989 45.6453 175.229 46.072 177.704 46.072C178.173 46.072 178.664 46.0507 179.176 46.008C179.731 45.9653 180.285 45.9013 180.84 45.816C181.437 45.7307 182.035 45.624 182.632 45.496C183.272 45.3253 183.912 45.112 184.552 44.856C185.789 44.3867 186.963 43.7467 188.072 42.936C189.181 42.1253 190.248 41.1227 191.272 39.928C192.296 38.6907 193.064 37.176 193.576 35.384C194.088 33.5493 194.344 31.416 194.344 28.984C194.344 26.7227 194.003 24.5467 193.32 22.456C192.68 20.3653 191.677 18.3813 190.312 16.504C188.989 14.6267 187.219 13.2187 185 12.28C182.824 11.2987 180.221 10.808 177.192 10.808C174.675 10.808 172.413 11.256 170.408 12.152C168.445 13.048 166.76 14.392 165.352 16.184C163.901 17.976 162.813 19.8533 162.088 21.816C161.405 23.7787 161.064 25.8267 161.064 27.96V27.832Z" fill="black"/>
<line x1="46.8501" y1="46" x2="46.8501" y2="68" stroke="black" stroke-width="6.5"/>
<rect x="203" y="77" width="130" height="26" fill="#FF9057"/>
<path d="M209.936 98V86.84C209.936 86.008 210.056 85.24 210.296 84.536C210.552 83.832 210.928 83.184 211.424 82.592C211.936 82.016 212.536 81.584 213.224 81.296C213.928 80.992 214.728 80.84 215.624 80.84C216.472 80.84 217.248 80.984 217.952 81.272C218.656 81.56 219.28 81.992 219.824 82.568C220.384 83.144 220.8 83.816 221.072 84.584C221.344 85.352 221.48 86.224 221.48 87.2C221.48 87.216 221.48 87.232 221.48 87.248C221.48 87.264 221.48 87.28 221.48 87.296C221.48 87.296 221.48 87.304 221.48 87.32C221.48 87.336 221.48 87.352 221.48 87.368C221.48 87.384 221.48 87.4 221.48 87.416C221.48 87.432 221.48 87.456 221.48 87.488C221.48 87.504 221.48 87.528 221.48 87.56C221.48 87.576 221.48 87.592 221.48 87.608C221.48 87.624 221.48 87.64 221.48 87.656V98H219.2V90.248H212.96V87.992H219.2C219.2 87.992 219.2 87.984 219.2 87.968C219.2 87.936 219.2 87.912 219.2 87.896C219.2 87.88 219.2 87.864 219.2 87.848C219.2 87.832 219.208 87.816 219.224 87.8C219.224 87.8 219.224 87.792 219.224 87.776C219.224 87.76 219.224 87.744 219.224 87.728C219.224 87.696 219.224 87.672 219.224 87.656C219.224 87.624 219.224 87.6 219.224 87.584C219.224 87.568 219.224 87.552 219.224 87.536C219.224 87.52 219.224 87.504 219.224 87.488C219.224 87.488 219.224 87.48 219.224 87.464C219.224 87.448 219.224 87.432 219.224 87.416C219.224 86.664 219.144 86.008 218.984 85.448C218.84 84.888 218.616 84.424 218.312 84.056C218.008 83.688 217.64 83.408 217.208 83.216C216.792 83.024 216.32 82.928 215.792 82.928C215.296 82.928 214.856 82.992 214.472 83.12C214.088 83.248 213.768 83.432 213.512 83.672C213.256 83.912 213.04 84.168 212.864 84.44C212.704 84.712 212.576 84.992 212.48 85.28C212.432 85.424 212.392 85.568 212.36 85.712C212.328 85.856 212.296 86 212.264 86.144C212.248 86.288 212.232 86.424 212.216 86.552C212.216 86.664 212.216 86.776 212.216 86.888V98H209.936ZM223.342 86.48H225.43V87.608C225.462 87.592 225.486 87.568 225.502 87.536C225.534 87.504 225.574 87.464 225.622 87.416C225.654 87.368 225.694 87.32 225.742 87.272C225.79 87.224 225.838 87.176 225.886 87.128C226.014 87 226.15 86.88 226.294 86.768C226.454 86.656 226.638 86.552 226.846 86.456C227.038 86.36 227.254 86.288 227.494 86.24C227.734 86.176 227.99 86.144 228.262 86.144L229.03 86.096V88.184H228.454C228.006 88.264 227.622 88.384 227.302 88.544C226.982 88.704 226.71 88.904 226.486 89.144C226.278 89.384 226.102 89.64 225.958 89.912C225.83 90.168 225.726 90.432 225.646 90.704C225.582 90.912 225.534 91.112 225.502 91.304C225.47 91.496 225.454 91.68 225.454 91.856C225.438 92.048 225.43 92.216 225.43 92.36C225.43 92.504 225.43 92.64 225.43 92.768V98H223.342V86.48ZM229.975 92.336C229.975 92.208 229.983 92.064 229.999 91.904C230.015 91.744 230.039 91.576 230.071 91.4C230.103 91.224 230.151 91.048 230.215 90.872C230.279 90.68 230.351 90.488 230.431 90.296C230.607 89.848 230.847 89.424 231.151 89.024C231.455 88.608 231.823 88.216 232.255 87.848C232.687 87.48 233.183 87.2 233.743 87.008C234.319 86.816 234.959 86.72 235.663 86.72L237.919 86.672V88.736H236.215C236.103 88.768 235.991 88.792 235.879 88.808C235.767 88.808 235.647 88.824 235.519 88.856C235.391 88.872 235.263 88.896 235.135 88.928C235.007 88.96 234.879 89 234.751 89.048C234.463 89.16 234.183 89.304 233.911 89.48C233.655 89.656 233.407 89.88 233.167 90.152C232.927 90.408 232.743 90.728 232.615 91.112C232.503 91.48 232.447 91.904 232.447 92.384C232.447 92.432 232.447 92.48 232.447 92.528C232.447 92.576 232.447 92.616 232.447 92.648C232.447 92.696 232.447 92.744 232.447 92.792C232.463 92.84 232.471 92.888 232.471 92.936C232.471 92.984 232.479 93.032 232.495 93.08C232.511 93.128 232.519 93.176 232.519 93.224C232.535 93.288 232.551 93.344 232.567 93.392C232.583 93.44 232.599 93.488 232.615 93.536C232.695 93.84 232.823 94.136 232.999 94.424C233.175 94.696 233.391 94.96 233.647 95.216C233.903 95.472 234.215 95.664 234.583 95.792C234.951 95.904 235.383 95.96 235.879 95.96C235.911 95.96 235.935 95.96 235.951 95.96C235.983 95.96 236.007 95.96 236.023 95.96C236.055 95.96 236.087 95.96 236.119 95.96C236.151 95.96 236.183 95.96 236.215 95.96L237.919 95.912V98H235.471C234.735 97.984 234.079 97.88 233.503 97.688C232.943 97.496 232.455 97.216 232.039 96.848C231.639 96.48 231.295 96.096 231.007 95.696C230.735 95.296 230.519 94.88 230.359 94.448C230.295 94.272 230.239 94.096 230.191 93.92C230.143 93.728 230.103 93.544 230.071 93.368C230.039 93.192 230.015 93.024 229.999 92.864C229.983 92.704 229.975 92.544 229.975 92.384V92.336ZM239.425 81.176H241.513V87.416C241.737 87.256 241.969 87.104 242.209 86.96C242.465 86.8 242.721 86.656 242.977 86.528C243.233 86.4 243.505 86.304 243.793 86.24C244.081 86.176 244.393 86.144 244.729 86.144C245.337 86.144 245.905 86.232 246.433 86.408C246.977 86.584 247.473 86.848 247.921 87.2C248.369 87.552 248.705 87.976 248.929 88.472C249.153 88.952 249.265 89.496 249.265 90.104V98H247.177V91.208C247.177 90.76 247.113 90.352 246.985 89.984C246.857 89.616 246.665 89.304 246.409 89.048C246.153 88.776 245.865 88.576 245.545 88.448C245.241 88.304 244.905 88.232 244.537 88.232C244.089 88.232 243.697 88.296 243.361 88.424C243.025 88.536 242.745 88.704 242.521 88.928C242.297 89.168 242.113 89.416 241.969 89.672C241.825 89.928 241.713 90.192 241.633 90.464C241.617 90.544 241.601 90.632 241.585 90.728C241.569 90.808 241.553 90.888 241.537 90.968C241.521 91.048 241.513 91.128 241.513 91.208C241.513 91.272 241.513 91.344 241.513 91.424V98H239.425V81.176ZM252.647 98V86.48H254.735V98H252.647ZM252.479 83.816C252.479 83.64 252.511 83.48 252.575 83.336C252.639 83.176 252.743 83.04 252.887 82.928C253.015 82.832 253.151 82.76 253.295 82.712C253.455 82.648 253.615 82.616 253.775 82.616C253.951 82.616 254.111 82.64 254.255 82.688C254.399 82.736 254.543 82.816 254.687 82.928C254.831 83.04 254.935 83.176 254.999 83.336C255.079 83.48 255.119 83.656 255.119 83.864C255.119 84.072 255.079 84.256 254.999 84.416C254.935 84.576 254.839 84.712 254.711 84.824C254.567 84.936 254.423 85.016 254.279 85.064C254.135 85.112 253.983 85.136 253.823 85.136C253.663 85.152 253.503 85.136 253.343 85.088C253.183 85.04 253.031 84.96 252.887 84.848C252.743 84.736 252.639 84.6 252.575 84.44C252.511 84.264 252.479 84.072 252.479 83.864V83.816ZM258.535 94.232V83.648H260.791V86.48H265.159V88.544H260.791V94.4C260.791 94.624 260.807 94.824 260.839 95C260.871 95.176 260.919 95.344 260.983 95.504C261.047 95.664 261.183 95.784 261.391 95.864C261.615 95.928 261.919 95.96 262.303 95.96L264.967 95.912V98H262.135C262.119 98 262.103 98 262.087 98C262.071 98 262.055 98 262.039 98C262.023 98 262.007 98 261.991 98C261.991 98 261.983 98.008 261.967 98.024C261.951 98.024 261.935 98.024 261.919 98.024C261.903 98.024 261.887 98.024 261.871 98.024C261.855 98.024 261.839 98.024 261.823 98.024C261.823 98.024 261.815 98.024 261.799 98.024C261.255 98.024 260.783 97.944 260.383 97.784C259.983 97.624 259.655 97.376 259.399 97.04C259.143 96.704 258.943 96.344 258.799 95.96C258.671 95.576 258.591 95.176 258.559 94.76C258.543 94.728 258.535 94.696 258.535 94.664C258.535 94.616 258.535 94.568 258.535 94.52C258.535 94.488 258.535 94.456 258.535 94.424C258.535 94.376 258.535 94.328 258.535 94.28V94.232ZM268.377 92.72L274.041 89.504C274.009 89.488 273.977 89.472 273.945 89.456C273.913 89.424 273.881 89.384 273.849 89.336C273.817 89.304 273.777 89.264 273.729 89.216C273.697 89.168 273.657 89.12 273.609 89.072C273.561 89.04 273.505 89.008 273.441 88.976C273.393 88.928 273.345 88.88 273.297 88.832C273.233 88.8 273.169 88.768 273.105 88.736C273.041 88.688 272.969 88.648 272.889 88.616C272.729 88.536 272.537 88.48 272.313 88.448C272.105 88.416 271.865 88.4 271.593 88.4C270.969 88.4 270.417 88.512 269.937 88.736C269.473 88.96 269.081 89.288 268.761 89.72C268.441 90.152 268.201 90.608 268.041 91.088C267.881 91.568 267.801 92.064 267.801 92.576C267.801 92.592 267.801 92.608 267.801 92.624C267.801 92.64 267.801 92.648 267.801 92.648C267.801 93.112 267.881 93.56 268.041 93.992C268.217 94.408 268.465 94.808 268.785 95.192C269.105 95.576 269.497 95.864 269.961 96.056C270.441 96.248 270.985 96.344 271.593 96.344C272.249 96.344 272.793 96.272 273.225 96.128C273.673 95.968 274.009 95.736 274.233 95.432C274.457 95.112 274.657 94.736 274.833 94.304C275.025 93.872 275.193 93.384 275.337 92.84C275.337 92.84 275.337 92.832 275.337 92.816C275.337 92.816 275.345 92.808 275.361 92.792C275.361 92.776 275.361 92.768 275.361 92.768L277.449 92.888C277.449 92.92 277.449 92.952 277.449 92.984C277.449 93 277.457 93.016 277.473 93.032C277.473 93.064 277.473 93.088 277.473 93.104C277.473 93.12 277.473 93.144 277.473 93.176C277.473 93.192 277.473 93.216 277.473 93.248C277.473 93.264 277.481 93.28 277.497 93.296C277.497 93.328 277.497 93.352 277.497 93.368C277.497 93.384 277.497 93.4 277.497 93.416C277.497 93.544 277.489 93.68 277.473 93.824C277.457 93.952 277.433 94.088 277.401 94.232C277.385 94.296 277.361 94.368 277.329 94.448C277.313 94.528 277.297 94.6 277.281 94.664C277.249 94.744 277.217 94.824 277.185 94.904C277.169 94.968 277.145 95.04 277.113 95.12C276.921 95.52 276.665 95.912 276.345 96.296C276.025 96.68 275.633 97.04 275.169 97.376C274.721 97.712 274.193 97.96 273.585 98.12C272.993 98.296 272.329 98.384 271.593 98.384C270.745 98.384 269.961 98.256 269.241 98C268.521 97.728 267.873 97.32 267.297 96.776C266.705 96.216 266.265 95.592 265.977 94.904C265.689 94.2 265.545 93.424 265.545 92.576C265.545 91.68 265.665 90.888 265.905 90.2C266.145 89.512 266.505 88.92 266.985 88.424C267.465 87.928 267.969 87.52 268.497 87.2C269.025 86.88 269.577 86.648 270.153 86.504C270.217 86.488 270.273 86.48 270.321 86.48C270.385 86.464 270.449 86.448 270.513 86.432C270.577 86.432 270.633 86.432 270.681 86.432C270.745 86.416 270.809 86.4 270.873 86.384C271.001 86.368 271.121 86.36 271.233 86.36C271.361 86.344 271.481 86.336 271.593 86.336C272.249 86.336 272.857 86.432 273.417 86.624C273.993 86.8 274.521 87.072 275.001 87.44C275.465 87.808 275.881 88.216 276.249 88.664C276.633 89.112 276.969 89.592 277.257 90.104L269.313 94.4L268.377 92.72ZM279.311 92.336C279.311 92.208 279.319 92.064 279.335 91.904C279.351 91.744 279.375 91.576 279.407 91.4C279.439 91.224 279.487 91.048 279.551 90.872C279.615 90.68 279.687 90.488 279.767 90.296C279.943 89.848 280.183 89.424 280.487 89.024C280.791 88.608 281.159 88.216 281.591 87.848C282.023 87.48 282.519 87.2 283.079 87.008C283.655 86.816 284.295 86.72 284.999 86.72L287.255 86.672V88.736H285.551C285.439 88.768 285.327 88.792 285.215 88.808C285.103 88.808 284.983 88.824 284.855 88.856C284.727 88.872 284.599 88.896 284.471 88.928C284.343 88.96 284.215 89 284.087 89.048C283.799 89.16 283.519 89.304 283.247 89.48C282.991 89.656 282.743 89.88 282.503 90.152C282.263 90.408 282.079 90.728 281.951 91.112C281.839 91.48 281.783 91.904 281.783 92.384C281.783 92.432 281.783 92.48 281.783 92.528C281.783 92.576 281.783 92.616 281.783 92.648C281.783 92.696 281.783 92.744 281.783 92.792C281.799 92.84 281.807 92.888 281.807 92.936C281.807 92.984 281.815 93.032 281.831 93.08C281.847 93.128 281.855 93.176 281.855 93.224C281.871 93.288 281.887 93.344 281.903 93.392C281.919 93.44 281.935 93.488 281.951 93.536C282.031 93.84 282.159 94.136 282.335 94.424C282.511 94.696 282.727 94.96 282.983 95.216C283.239 95.472 283.551 95.664 283.919 95.792C284.287 95.904 284.719 95.96 285.215 95.96C285.247 95.96 285.271 95.96 285.287 95.96C285.319 95.96 285.343 95.96 285.359 95.96C285.391 95.96 285.423 95.96 285.455 95.96C285.487 95.96 285.519 95.96 285.551 95.96L287.255 95.912V98H284.807C284.071 97.984 283.415 97.88 282.839 97.688C282.279 97.496 281.791 97.216 281.375 96.848C280.975 96.48 280.631 96.096 280.343 95.696C280.071 95.296 279.855 94.88 279.695 94.448C279.631 94.272 279.575 94.096 279.527 93.92C279.479 93.728 279.439 93.544 279.407 93.368C279.375 93.192 279.351 93.024 279.335 92.864C279.319 92.704 279.311 92.544 279.311 92.384V92.336ZM289.145 94.232V83.648H291.401V86.48H295.769V88.544H291.401V94.4C291.401 94.624 291.417 94.824 291.449 95C291.481 95.176 291.529 95.344 291.593 95.504C291.657 95.664 291.793 95.784 292.001 95.864C292.225 95.928 292.529 95.96 292.913 95.96L295.577 95.912V98H292.745C292.729 98 292.713 98 292.697 98C292.681 98 292.665 98 292.649 98C292.633 98 292.617 98 292.601 98C292.601 98 292.593 98.008 292.577 98.024C292.561 98.024 292.545 98.024 292.529 98.024C292.513 98.024 292.497 98.024 292.481 98.024C292.465 98.024 292.449 98.024 292.433 98.024C292.433 98.024 292.425 98.024 292.409 98.024C291.865 98.024 291.393 97.944 290.993 97.784C290.593 97.624 290.265 97.376 290.009 97.04C289.753 96.704 289.553 96.344 289.409 95.96C289.281 95.576 289.201 95.176 289.169 94.76C289.153 94.728 289.145 94.696 289.145 94.664C289.145 94.616 289.145 94.568 289.145 94.52C289.145 94.488 289.145 94.456 289.145 94.424C289.145 94.376 289.145 94.328 289.145 94.28V94.232ZM296.706 86.48H298.794V93.464C298.794 93.912 298.858 94.312 298.986 94.664C299.114 95 299.306 95.304 299.562 95.576C299.834 95.832 300.138 96.024 300.474 96.152C300.81 96.28 301.194 96.344 301.626 96.344C301.962 96.344 302.274 96.288 302.562 96.176C302.85 96.064 303.098 95.888 303.306 95.648C303.53 95.408 303.714 95.16 303.858 94.904C304.002 94.632 304.106 94.352 304.17 94.064C304.186 94 304.194 93.944 304.194 93.896C304.21 93.832 304.226 93.768 304.242 93.704C304.242 93.672 304.242 93.64 304.242 93.608C304.242 93.576 304.25 93.544 304.266 93.512C304.266 93.48 304.266 93.448 304.266 93.416C304.266 93.384 304.266 93.352 304.266 93.32V86.48H306.354V93.08C306.354 93.112 306.354 93.144 306.354 93.176C306.354 93.192 306.354 93.208 306.354 93.224C306.354 93.24 306.354 93.256 306.354 93.272C306.354 93.288 306.362 93.304 306.378 93.32C306.378 93.336 306.378 93.352 306.378 93.368C306.378 93.384 306.378 93.4 306.378 93.416C306.378 93.432 306.378 93.448 306.378 93.464C306.378 93.48 306.378 93.496 306.378 93.512C306.378 94.184 306.266 94.808 306.042 95.384C305.834 95.96 305.514 96.488 305.082 96.968C304.65 97.448 304.146 97.8 303.57 98.024C302.994 98.264 302.346 98.384 301.626 98.384C300.922 98.384 300.274 98.28 299.682 98.072C299.09 97.88 298.562 97.584 298.098 97.184C297.634 96.768 297.282 96.224 297.042 95.552C296.818 94.88 296.706 94.072 296.706 93.128V86.48ZM308.608 86.48H310.696V87.608C310.728 87.592 310.752 87.568 310.768 87.536C310.8 87.504 310.84 87.464 310.888 87.416C310.92 87.368 310.96 87.32 311.008 87.272C311.056 87.224 311.104 87.176 311.152 87.128C311.28 87 311.416 86.88 311.56 86.768C311.72 86.656 311.904 86.552 312.112 86.456C312.304 86.36 312.52 86.288 312.76 86.24C313 86.176 313.256 86.144 313.528 86.144L314.296 86.096V88.184H313.72C313.272 88.264 312.888 88.384 312.568 88.544C312.248 88.704 311.976 88.904 311.752 89.144C311.544 89.384 311.368 89.64 311.224 89.912C311.096 90.168 310.992 90.432 310.912 90.704C310.848 90.912 310.8 91.112 310.768 91.304C310.736 91.496 310.72 91.68 310.72 91.856C310.704 92.048 310.696 92.216 310.696 92.36C310.696 92.504 310.696 92.64 310.696 92.768V98H308.608V86.48ZM317.713 92.72L323.377 89.504C323.345 89.488 323.313 89.472 323.281 89.456C323.249 89.424 323.217 89.384 323.185 89.336C323.153 89.304 323.113 89.264 323.065 89.216C323.033 89.168 322.993 89.12 322.945 89.072C322.897 89.04 322.841 89.008 322.777 88.976C322.729 88.928 322.681 88.88 322.633 88.832C322.569 88.8 322.505 88.768 322.441 88.736C322.377 88.688 322.305 88.648 322.225 88.616C322.065 88.536 321.873 88.48 321.649 88.448C321.441 88.416 321.201 88.4 320.929 88.4C320.305 88.4 319.753 88.512 319.273 88.736C318.809 88.96 318.417 89.288 318.097 89.72C317.777 90.152 317.537 90.608 317.377 91.088C317.217 91.568 317.137 92.064 317.137 92.576C317.137 92.592 317.137 92.608 317.137 92.624C317.137 92.64 317.137 92.648 317.137 92.648C317.137 93.112 317.217 93.56 317.377 93.992C317.553 94.408 317.801 94.808 318.121 95.192C318.441 95.576 318.833 95.864 319.297 96.056C319.777 96.248 320.321 96.344 320.929 96.344C321.585 96.344 322.129 96.272 322.561 96.128C323.009 95.968 323.345 95.736 323.569 95.432C323.793 95.112 323.993 94.736 324.169 94.304C324.361 93.872 324.529 93.384 324.673 92.84C324.673 92.84 324.673 92.832 324.673 92.816C324.673 92.816 324.681 92.808 324.697 92.792C324.697 92.776 324.697 92.768 324.697 92.768L326.785 92.888C326.785 92.92 326.785 92.952 326.785 92.984C326.785 93 326.793 93.016 326.809 93.032C326.809 93.064 326.809 93.088 326.809 93.104C326.809 93.12 326.809 93.144 326.809 93.176C326.809 93.192 326.809 93.216 326.809 93.248C326.809 93.264 326.817 93.28 326.833 93.296C326.833 93.328 326.833 93.352 326.833 93.368C326.833 93.384 326.833 93.4 326.833 93.416C326.833 93.544 326.825 93.68 326.809 93.824C326.793 93.952 326.769 94.088 326.737 94.232C326.721 94.296 326.697 94.368 326.665 94.448C326.649 94.528 326.633 94.6 326.617 94.664C326.585 94.744 326.553 94.824 326.521 94.904C326.505 94.968 326.481 95.04 326.449 95.12C326.257 95.52 326.001 95.912 325.681 96.296C325.361 96.68 324.969 97.04 324.505 97.376C324.057 97.712 323.529 97.96 322.921 98.12C322.329 98.296 321.665 98.384 320.929 98.384C320.081 98.384 319.297 98.256 318.577 98C317.857 97.728 317.209 97.32 316.633 96.776C316.041 96.216 315.601 95.592 315.313 94.904C315.025 94.2 314.881 93.424 314.881 92.576C314.881 91.68 315.001 90.888 315.241 90.2C315.481 89.512 315.841 88.92 316.321 88.424C316.801 87.928 317.305 87.52 317.833 87.2C318.361 86.88 318.913 86.648 319.489 86.504C319.553 86.488 319.609 86.48 319.657 86.48C319.721 86.464 319.785 86.448 319.849 86.432C319.913 86.432 319.969 86.432 320.017 86.432C320.081 86.416 320.145 86.4 320.209 86.384C320.337 86.368 320.457 86.36 320.569 86.36C320.697 86.344 320.817 86.336 320.929 86.336C321.585 86.336 322.193 86.432 322.753 86.624C323.329 86.8 323.857 87.072 324.337 87.44C324.801 87.808 325.217 88.216 325.585 88.664C325.969 89.112 326.305 89.592 326.593 90.104L318.649 94.4L317.713 92.72Z" fill="white"/>
</svg>
